<?xml version="1.0" encoding="utf-8"?>
<!-- Generator: Adobe Illustrator 21.0.0, SVG Export Plug-In . SVG Version: 6.00 Build 0)  -->
<svg version="1.1" id="Layer_1" xmlns="http://www.w3.org/2000/svg" xmlns:xlink="http://www.w3.org/1999/xlink" x="0px" y="0px"
	 viewBox="0 0 419.2 80" style="enable-background:new 0 0 419.2 80;" xml:space="preserve">
<style type="text/css">
	.st0{display:none;fill:#33414E;}
	.st1{display:none;}
	.st2{display:inline;fill:#656370;}
	.st3{fill:#FFFFFF;}
	.st4{fill:#009874;}
	.st5{opacity:0.1;fill:#020202;}
	.st6{fill:#28B7CE;}
</style>
<rect x="-222.6" y="-250.2" class="st0" width="800" height="600"/>
<g class="st1">
	<path class="st2" d="M129.4,11.7h-6.7c-3.2,0-5.9-2.6-5.9-5.9v0c0-3.2,2.6-5.9,5.9-5.9l6.7,0c3.2,0,5.9,2.6,5.9,5.9v0
		C135.2,9.1,132.6,11.7,129.4,11.7z"/>
	<path class="st2" d="M188.8,11.7h-45.1c-3.2,0-5.9-2.6-5.9-5.9v0c0-3.2,2.6-5.9,5.9-5.9l45.1,0c3.2,0,5.9,2.6,5.9,5.9v0
		C194.6,9.1,192,11.7,188.8,11.7z"/>
	<path class="st2" d="M185.4,14.2c0-1.4,1.1-2.5,2.5-2.5h-43.5c1.4,0,2.5,1.1,2.5,2.5s-1.1,2.5-2.5,2.5H188
		C186.6,16.7,185.4,15.6,185.4,14.2z"/>
	<path class="st2" d="M197.9,28.4h-80.3c-3.2,0-5.9-2.6-5.9-5.9v0c0-3.2,2.6-5.9,5.9-5.9h80.3c3.2,0,5.9,2.6,5.9,5.9v0
		C203.8,25.8,201.2,28.4,197.9,28.4z"/>
	<path class="st2" d="M202.9,45.1h-78.6c-3.2,0-5.9-2.6-5.9-5.9v0c0-3.2,2.6-5.9,5.9-5.9h78.6c3.2,0,5.9,2.6,5.9,5.9v0
		C208.8,42.5,206.2,45.1,202.9,45.1z"/>
	<path class="st2" d="M181.2,61.9h-63.5c-3.2,0-5.9-2.6-5.9-5.9v0c0-3.2,2.6-5.9,5.9-5.9h63.5c3.2,0,5.9,2.6,5.9,5.9v0
		C187.1,59.2,184.4,61.9,181.2,61.9z"/>
	<path class="st2" d="M188.8,78.6H137c-3.2,0-5.9-2.6-5.9-5.9v0c0-3.2,2.6-5.9,5.9-5.9h51.8c3.2,0,5.9,2.6,5.9,5.9v0
		C194.6,75.9,192,78.6,188.8,78.6z"/>
	<path class="st2" d="M199.7,61.9h-3.3c-3.2,0-5.9-2.6-5.9-5.9v0c0-3.2,2.6-5.9,5.9-5.9h3.3c3.2,0,5.9,2.6,5.9,5.9v0
		C205.5,59.2,202.9,61.9,199.7,61.9z"/>
	<path class="st2" d="M194.6,30.9c0-1.4,1.1-2.5,2.5-2.5h-66.9c1.4,0,2.5,1.1,2.5,2.5s-1.1,2.5-2.5,2.5h66.9
		C195.7,33.4,194.6,32.3,194.6,30.9z"/>
	<path class="st2" d="M180.4,64.4c0-1.4,0.7-2.5,1.6-2.5h-43.5c0.9,0,1.6,1.1,1.6,2.5s-0.7,2.5-1.6,2.5h43.5
		C181.2,66.9,180.4,65.8,180.4,64.4z"/>
</g>
<g>
	<g>
		<path class="st3" d="M4.2,44.9c0.1,6,3.9,8.4,8.3,8.4c3.2,0,5.1-0.5,6.7-1.3l0.8,3.2c-1.6,0.7-4.2,1.5-8.1,1.5
			C4.5,56.7,0,51.8,0,44.5s4.3-13.1,11.4-13.1c7.9,0,10,7,10,11.4c0,0.9-0.1,1.6-0.1,2H4.2z M17.1,41.8c0.1-2.8-1.1-7.2-6.1-7.2
			c-4.5,0-6.4,4.1-6.8,7.2H17.1z"/>
		<path class="st3" d="M26.8,38.6c0-2.5-0.1-4.6-0.2-6.6h3.9l0.3,4h0.1c1.2-2.3,4-4.6,8-4.6c3.4,0,8.6,2,8.6,10.3v14.5H43v-14
			c0-3.9-1.4-7.2-5.6-7.2c-2.9,0-5.2,2-5.9,4.5c-0.2,0.6-0.3,1.3-0.3,2.1v14.6h-4.4V38.6z"/>
		<path class="st3" d="M71.8,55.3c-1.2,0.6-3.7,1.4-7,1.4c-7.3,0-12.1-5-12.1-12.4c0-7.5,5.1-12.9,13-12.9c2.6,0,4.9,0.7,6.1,1.3
			l-1,3.4c-1.1-0.6-2.7-1.1-5.1-1.1c-5.6,0-8.6,4.1-8.6,9.2c0,5.6,3.6,9.1,8.4,9.1c2.5,0,4.2-0.7,5.4-1.2L71.8,55.3z"/>
		<path class="st3" d="M79.4,32l5.3,14.3c0.5,1.6,1.1,3.5,1.5,5h0.1c0.5-1.5,1-3.3,1.6-5.1L92.8,32h4.6l-6.6,17.3
			c-3.2,8.3-5.3,12.6-8.3,15.2c-2.1,1.9-4.3,2.7-5.4,2.9L76,63.6c1.1-0.4,2.5-1.1,3.9-2.2c1.2-1,2.7-2.7,3.7-4.9
			c0.2-0.5,0.4-0.8,0.4-1s-0.1-0.6-0.3-1.2l-9-22.3H79.4z"/>
	</g>
	<g>
		<path class="st4" d="M124.5,55.1c-1.6,0.8-4.8,1.6-8.9,1.6c-9.5,0-16.7-6-16.7-17.1c0-10.6,7.2-17.7,17.6-17.7
			c4.2,0,6.9,0.9,8,1.5l-1.1,3.6c-1.6-0.8-4-1.4-6.8-1.4c-7.9,0-13.2,5.1-13.2,13.9c0,8.3,4.8,13.6,13,13.6c2.7,0,5.4-0.5,7.1-1.4
			L124.5,55.1z"/>
	</g>
</g>
<g>
	<g>
		<path class="st3" d="M308.4,39.9c0-3.1-0.1-5.6-0.2-7.9h4l0.2,4.2h0.1c1.8-3,4.6-4.7,8.6-4.7c5.9,0,10.3,5,10.3,12.3
			c0,8.7-5.3,13-11,13c-3.2,0-6-1.4-7.5-3.8h-0.1v13.2h-4.4V39.9z M312.8,46.4c0,0.6,0.1,1.3,0.2,1.8c0.8,3,3.5,5.1,6.6,5.1
			c4.7,0,7.4-3.8,7.4-9.4c0-4.9-2.5-9-7.2-9c-3,0-5.8,2.2-6.7,5.5c-0.2,0.5-0.3,1.2-0.3,1.8V46.4z"/>
		<path class="st3" d="M339.3,44.9c0.1,6,3.9,8.4,8.3,8.4c3.2,0,5-0.5,6.7-1.3l0.8,3.2c-1.5,0.7-4.2,1.5-8.1,1.5
			c-7.5,0-11.9-4.9-11.9-12.2s4.3-13.1,11.4-13.1c7.9,0,10,7,10,11.4c0,0.9-0.1,1.6-0.2,2H339.3z M352.2,41.8
			c0.1-2.8-1.1-7.2-6.1-7.2c-4.5,0-6.4,4.1-6.8,7.2H352.2z"/>
		<path class="st3" d="M382.8,20.7V50c0,2.1,0,4.6,0.2,6.3h-4l-0.2-4.2h-0.1c-1.4,2.7-4.3,4.8-8.3,4.8c-5.9,0-10.4-5-10.4-12.3
			c0-8.1,5-13,10.9-13c3.7,0,6.2,1.8,7.3,3.7h0.1V20.7H382.8z M378.4,41.9c0-0.5,0-1.3-0.2-1.9c-0.6-2.8-3-5.1-6.4-5.1
			c-4.5,0-7.3,4-7.3,9.4c0,4.9,2.4,9,7.2,9c3,0,5.7-2,6.5-5.3c0.2-0.6,0.2-1.2,0.2-1.9V41.9z"/>
		<path class="st3" d="M395,25.2c0.1,1.5-1,2.7-2.8,2.7c-1.5,0-2.7-1.2-2.7-2.7c0-1.5,1.2-2.8,2.8-2.8C394,22.5,395,23.7,395,25.2z
			 M390.1,56.2V32h4.4v24.2H390.1z"/>
		<path class="st3" d="M415.2,56.2l-0.3-3.1h-0.2c-1.3,1.9-4,3.6-7.4,3.6c-4.9,0-7.4-3.5-7.4-7c0-5.9,5.2-9.1,14.6-9v-0.5
			c0-2-0.5-5.6-5.5-5.6c-2.3,0-4.6,0.7-6.3,1.8l-1-2.9c2-1.3,4.9-2.1,8-2.1c7.4,0,9.2,5.1,9.2,9.9v9.1c0,2.1,0.1,4.1,0.4,5.8H415.2z
			 M414.6,43.9c-4.8-0.1-10.3,0.8-10.3,5.5c0,2.8,1.9,4.2,4.2,4.2c3.2,0,5.2-2,5.9-4.1c0.1-0.4,0.3-1,0.3-1.4V43.9z"/>
	</g>
	<g>
		<path class="st4" d="M217.7,49.6c0,2.5,0.1,4.7,0.2,6.6H214l-0.3-4h-0.1c-1.2,2-3.7,4.5-8,4.5c-3.8,0-8.4-2.1-8.4-10.6V32h4.4
			v13.4c0,4.6,1.4,7.7,5.4,7.7c3,0,5-2,5.8-4c0.3-0.6,0.4-1.4,0.4-2.3V32h4.4V49.6z"/>
		<path class="st4" d="M225,38.6c0-2.5,0-4.6-0.2-6.6h3.9l0.3,4h0.1c1.2-2.3,4-4.6,8-4.6c3.4,0,8.6,2,8.6,10.3v14.5h-4.4v-14
			c0-3.9-1.5-7.2-5.6-7.2c-2.9,0-5.2,2-5.9,4.5c-0.2,0.6-0.3,1.3-0.3,2.1v14.6H225V38.6z"/>
		<path class="st4" d="M257.8,25.1v7h6.3v3.4h-6.3v13.1c0,3,0.8,4.7,3.3,4.7c1.2,0,2-0.1,2.5-0.3l0.2,3.3c-0.8,0.4-2.2,0.6-3.9,0.6
			c-2,0-3.7-0.7-4.8-1.9c-1.3-1.3-1.7-3.5-1.7-6.3V35.4h-3.8V32h3.8v-5.8L257.8,25.1z"/>
		<path class="st4" d="M269.1,39.6c0-2.9,0-5.3-0.2-7.6h3.9l0.2,4.8h0.2c1.1-3.3,3.8-5.3,6.7-5.3c0.5,0,0.8,0,1.3,0.1v4.2
			c-0.5-0.1-0.9-0.1-1.5-0.1c-3.1,0-5.3,2.4-5.9,5.7c-0.1,0.6-0.2,1.3-0.2,2v12.9h-4.4V39.6z"/>
		<path class="st4" d="M288.3,32l5.3,14.3c0.5,1.6,1.1,3.5,1.5,5h0.1c0.5-1.5,1-3.3,1.5-5.1l4.8-14.2h4.7l-6.6,17.3
			c-3.2,8.3-5.3,12.6-8.3,15.2c-2.1,1.9-4.3,2.7-5.4,2.9l-1.1-3.7c1.1-0.4,2.5-1.1,3.9-2.2c1.2-1,2.7-2.7,3.7-4.9
			c0.2-0.5,0.3-0.8,0.3-1s-0.1-0.6-0.3-1.2l-9-22.3H288.3z"/>
	</g>
</g>
<g>
	<g>
		<g>
			<path class="st5" d="M160.3,80c-21.2,0-38.5-17.3-38.5-38.5s17.3-38.5,38.5-38.5s38.5,17.3,38.5,38.5S181.5,80,160.3,80z"/>
			<path class="st5" d="M160.3,76.7c-19.4,0-35.1-15.7-35.1-35.1c0-19.4,15.8-35.1,35.1-35.1c19.4,0,35.1,15.8,35.1,35.1
				C195.4,60.9,179.7,76.7,160.3,76.7z"/>
			<path class="st5" d="M160.3,73.3c-17.5,0-31.8-14.3-31.8-31.8s14.3-31.8,31.8-31.8s31.8,14.3,31.8,31.8S177.8,73.3,160.3,73.3z"
				/>
		</g>
		<circle class="st6" cx="160.3" cy="41.6" r="28.4"/>
		<path class="st4" d="M177.1,18.6c-6.7,2.8-28.4,13.9-5.7,29.1c11.2,7.5,10.1,13.2,5.1,17.3c7.5-5.1,12.4-13.7,12.4-23.4
			C188.7,32.1,184.1,23.8,177.1,18.6z"/>
		<path class="st4" d="M136.4,26.2c-2.9,4.4-4.5,9.7-4.5,15.4c0,6.1,1.9,11.8,5.2,16.4c1.8-2,3.2-5.1,4-9.9
			C143,35.6,139.6,29.3,136.4,26.2z"/>
		<path class="st3" d="M160.3,13.1c-15.7,0-28.4,12.7-28.4,28.4c0,15.7,12.7,28.4,28.4,28.4s28.4-12.7,28.4-28.4
			C188.7,25.9,176,13.1,160.3,13.1z M160.3,68.3c-14.8,0-26.8-12-26.8-26.7c0-14.8,12-26.8,26.8-26.8c14.7,0,26.8,12,26.8,26.8
			C187.1,56.3,175.1,68.3,160.3,68.3z"/>
	</g>
	<path class="st3" d="M156.8,24.7h-12.6c-1,0-1.8-0.8-1.8-1.8v0c0-1,0.8-1.8,1.8-1.8h12.6c1,0,1.8,0.8,1.8,1.8v0
		C158.5,24,157.7,24.7,156.8,24.7z"/>
	<path class="st3" d="M185.7,37.7h-1.5c-1,0-1.8-0.8-1.8-1.8v0c0-1,0.8-1.8,1.8-1.8h1.5c1,0,1.8,0.8,1.8,1.8v0
		C187.4,37,186.6,37.7,185.7,37.7z"/>
	<path class="st3" d="M152.8,29.7h-16.6c-1,0-1.8-0.8-1.8-1.8v0c0-1,0.8-1.8,1.8-1.8h16.6c1,0,1.8,0.8,1.8,1.8v0
		C154.5,29,153.7,29.7,152.8,29.7z"/>
	<path class="st3" d="M143.7,41.7h-5.5c-1,0-1.8-0.8-1.8-1.8v0c0-1,0.8-1.8,1.8-1.8h5.5c1,0,1.8,0.8,1.8,1.8v0
		C145.4,41,144.6,41.7,143.7,41.7z"/>
	<path class="st3" d="M180.7,39.7h-5.5c-1,0-1.8-0.8-1.8-1.8v0c0-1,0.8-1.8,1.8-1.8h5.5c1,0,1.8,0.8,1.8,1.8v0
		C182.4,39,181.6,39.7,180.7,39.7z"/>
	<path class="st3" d="M159.7,41.7h-10.5c-1,0-1.8-0.8-1.8-1.8v0c0-1,0.8-1.8,1.8-1.8h10.5c1,0,1.8,0.8,1.8,1.8v0
		C161.4,41,160.6,41.7,159.7,41.7z"/>
	<path class="st3" d="M185.7,33.7h-10.5c-1,0-1.8-0.8-1.8-1.8v0c0-1,0.8-1.8,1.8-1.8h10.5c1,0,1.8,0.8,1.8,1.8v0
		C187.4,33,186.6,33.7,185.7,33.7z"/>
	<path class="st3" d="M156.1,61.2h-7.4c-0.7,0-1.2-0.6-1.2-1.2l0,0c0-0.7,0.6-1.2,1.2-1.2h7.4c0.7,0,1.2,0.6,1.2,1.2l0,0
		C157.3,60.7,156.7,61.2,156.1,61.2z"/>
	<path class="st3" d="M160.3,61.2h-1c-0.7,0-1.2-0.6-1.2-1.2v0c0-0.7,0.6-1.2,1.2-1.2h1c0.7,0,1.2,0.6,1.2,1.2v0
		C161.5,60.7,161,61.2,160.3,61.2z"/>
	<path class="st3" d="M154.5,57.7h-3.9c-0.7,0-1.2-0.6-1.2-1.2l0,0c0-0.7,0.6-1.2,1.2-1.2h3.9c0.7,0,1.2,0.6,1.2,1.2l0,0
		C155.8,57.1,155.2,57.7,154.5,57.7z"/>
	<path class="st3" d="M151.3,25.5c0-0.4,0.2-0.8,0.4-0.8h-7.5c0.2,0,0.4,0.3,0.4,0.8c0,0.4-0.2,0.8-0.4,0.8h7.5
		C151.5,26.3,151.3,25.9,151.3,25.5z"/>
	<path class="st3" d="M154.2,58.2c0-0.3,0.1-0.5,0.2-0.5h-3.7c0.1,0,0.2,0.2,0.2,0.5s-0.1,0.5-0.2,0.5h3.7
		C154.3,58.8,154.2,58.5,154.2,58.2z"/>
</g>
</svg>
